<?xml version="1.0" encoding="UTF-8" standalone="no"?>
<!DOCTYPE svg PUBLIC "-//W3C//DTD SVG 1.1//EN" "http://www.w3.org/Graphics/SVG/1.1/DTD/svg11.dtd">
<svg width="100%" height="100%" viewBox="0 0 893 221" version="1.1" xmlns="http://www.w3.org/2000/svg" xmlns:xlink="http://www.w3.org/1999/xlink" xml:space="preserve" xmlns:serif="http://www.serif.com/" style="fill-rule:evenodd;clip-rule:evenodd;stroke-linejoin:round;stroke-miterlimit:2;">
    <g transform="matrix(1,0,0,1,0,-875.127)">
        <g id="Atlas-Gold" serif:id="Atlas Gold" transform="matrix(2.41545,0,0,0.570604,1557.99,842.181)">
            <rect x="-645.008" y="57.739" width="369.553" height="386.415" style="fill:none;"/>
            <g transform="matrix(0.414001,0,0,1.75253,-670.091,-669.957)">
                <path d="M79.427,590.465L133.627,450.465L155.627,450.465L209.427,590.465L186.427,590.465L154.427,506.065C154.027,505.131 153.26,502.865 152.127,499.265C150.993,495.665 149.693,491.665 148.227,487.265C146.76,482.865 145.427,478.831 144.227,475.165C143.027,471.498 142.227,469.131 141.827,468.065L146.427,467.865C145.627,470.131 144.66,472.998 143.527,476.465C142.393,479.931 141.193,483.598 139.927,487.465C138.66,491.331 137.427,494.965 136.227,498.365C135.027,501.765 134.027,504.598 133.227,506.865L101.427,590.465L79.427,590.465Z" style="fill:url(#_Linear1);fill-rule:nonzero;"/>
                <path d="M310.627,590.465L310.627,471.265L271.427,471.265L271.427,450.465L372.627,450.465L372.627,471.265L332.227,471.265L332.227,590.465L310.627,590.465Z" style="fill:url(#_Linear2);fill-rule:nonzero;"/>
                <path d="M459.227,590.465L459.227,450.465L480.827,450.465L480.827,569.665L546.427,569.665L546.427,590.465L459.227,590.465Z" style="fill:url(#_Linear3);fill-rule:nonzero;"/>
                <path d="M624.427,590.465L678.627,450.465L700.627,450.465L754.427,590.465L731.427,590.465L699.427,506.065C699.027,505.131 698.26,502.865 697.127,499.265C695.993,495.665 694.693,491.665 693.227,487.265C691.76,482.865 690.427,478.831 689.227,475.165C688.027,471.498 687.227,469.131 686.827,468.065L691.427,467.865C690.627,470.131 689.66,472.998 688.527,476.465C687.393,479.931 686.193,483.598 684.927,487.465C683.66,491.331 682.427,494.965 681.227,498.365C680.027,501.765 679.027,504.598 678.227,506.865L646.427,590.465L624.427,590.465Z" style="fill:url(#_Linear4);fill-rule:nonzero;"/>
                <path d="M882.227,592.465C874.627,592.465 867.593,591.465 861.127,589.465C854.66,587.465 848.793,584.431 843.527,580.365C838.26,576.298 833.56,571.265 829.427,565.265L844.227,548.265C850.76,557.598 857.027,564.065 863.027,567.665C869.027,571.265 876.16,573.065 884.427,573.065C889.493,573.065 894.093,572.265 898.227,570.665C902.36,569.065 905.627,566.865 908.027,564.065C910.427,561.265 911.627,558.065 911.627,554.465C911.627,552.065 911.227,549.798 910.427,547.665C909.627,545.531 908.393,543.598 906.727,541.865C905.06,540.131 902.927,538.531 900.327,537.065C897.727,535.598 894.693,534.298 891.227,533.165C887.76,532.031 883.76,531.065 879.227,530.265C872.027,528.798 865.76,526.865 860.427,524.465C855.093,522.065 850.627,519.065 847.027,515.465C843.427,511.865 840.76,507.765 839.027,503.165C837.293,498.565 836.427,493.398 836.427,487.665C836.427,482.065 837.66,476.865 840.127,472.065C842.593,467.265 845.993,463.098 850.327,459.565C854.66,456.031 859.76,453.298 865.627,451.365C871.493,449.431 877.827,448.465 884.627,448.465C891.827,448.465 898.427,449.398 904.427,451.265C910.427,453.131 915.76,455.898 920.427,459.565C925.093,463.231 928.96,467.731 932.027,473.065L916.827,488.065C914.16,483.665 911.16,479.965 907.827,476.965C904.493,473.965 900.827,471.698 896.827,470.165C892.827,468.631 888.56,467.865 884.027,467.865C878.827,467.865 874.293,468.665 870.427,470.265C866.56,471.865 863.527,474.098 861.327,476.965C859.127,479.831 858.027,483.198 858.027,487.065C858.027,489.865 858.56,492.431 859.627,494.765C860.693,497.098 862.327,499.165 864.527,500.965C866.727,502.765 869.693,504.365 873.427,505.765C877.16,507.165 881.627,508.398 886.827,509.465C894.16,511.065 900.693,513.098 906.427,515.565C912.16,518.031 917.027,520.931 921.027,524.265C925.027,527.598 928.06,531.331 930.127,535.465C932.193,539.598 933.227,544.065 933.227,548.865C933.227,557.798 931.16,565.531 927.027,572.065C922.893,578.598 917.027,583.631 909.427,587.165C901.827,590.698 892.76,592.465 882.227,592.465Z" style="fill:url(#_Linear5);fill-rule:nonzero;"/>
            </g>
        </g>
    </g>
    <defs>
        <linearGradient id="_Linear1" x1="0" y1="0" x2="1" y2="0" gradientUnits="userSpaceOnUse" gradientTransform="matrix(130,0,0,140,79.4267,520.465)"><stop offset="0" style="stop-color:rgb(192,136,44);stop-opacity:1"/><stop offset="1" style="stop-color:rgb(234,198,130);stop-opacity:1"/></linearGradient>
        <linearGradient id="_Linear2" x1="0" y1="0" x2="1" y2="0" gradientUnits="userSpaceOnUse" gradientTransform="matrix(101.2,0,0,140,271.427,520.465)"><stop offset="0" style="stop-color:rgb(234,198,130);stop-opacity:1"/><stop offset="1" style="stop-color:rgb(192,136,44);stop-opacity:1"/></linearGradient>
        <linearGradient id="_Linear3" x1="0" y1="0" x2="1" y2="0" gradientUnits="userSpaceOnUse" gradientTransform="matrix(87.2,0,0,140,459.227,520.465)"><stop offset="0" style="stop-color:rgb(192,136,44);stop-opacity:1"/><stop offset="1" style="stop-color:rgb(234,198,130);stop-opacity:1"/></linearGradient>
        <linearGradient id="_Linear4" x1="0" y1="0" x2="1" y2="0" gradientUnits="userSpaceOnUse" gradientTransform="matrix(130,0,0,140,624.427,520.465)"><stop offset="0" style="stop-color:rgb(192,136,44);stop-opacity:1"/><stop offset="1" style="stop-color:rgb(234,198,130);stop-opacity:1"/></linearGradient>
        <linearGradient id="_Linear5" x1="0" y1="0" x2="1" y2="0" gradientUnits="userSpaceOnUse" gradientTransform="matrix(103.8,0,0,144,829.427,520.465)"><stop offset="0" style="stop-color:rgb(192,136,44);stop-opacity:1"/><stop offset="1" style="stop-color:rgb(234,198,130);stop-opacity:1"/></linearGradient>
    </defs>
</svg>
